<svg xmlns="http://www.w3.org/2000/svg" viewBox="0 0 1416 1000">
<style>
  path { fill: #141414; }
  @media (prefers-color-scheme: dark) { path { fill: #f4f2ee; } }
</style>
<g transform="translate(0,750) scale(1,-1)">
<path transform="translate(0,0)" d="M282 294H318V515Q310 515 301.5 515.5Q293 516 283 517V662H100V591H62V700H615Q616 691 616.0 683.0Q616 675 617 665H651V591H579Q578 599 578.0 607.5Q578 616 577 626H468Q467 637 467.0 645.0Q467 653 466 662H396V37H430V0H247V36H282Z"/>
<path transform="translate(703,0)" d="M314 407H386Q387 415 387.0 423.5Q387 432 388 442H423Q424 453 424.0 461.0Q424 469 425 479H460Q461 489 461.0 497.5Q461 506 462 516H497Q498 526 498.0 534.5Q498 543 499 553H533V663Q525 663 516.5 663.5Q508 664 499 665V700H682V665Q674 664 665.5 663.5Q657 663 648 663V591Q638 590 629.5 590.0Q621 590 611 589V517Q600 516 591.5 516.0Q583 516 574 515Q573 506 573.0 497.5Q573 489 572 480Q563 479 554.5 479.0Q546 479 537 478Q537 469 536.5 460.5Q536 452 535 443Q527 443 518.5 442.5Q510 442 500 441Q500 433 499.5 424.5Q499 416 498 406Q490 406 481.5 405.5Q473 405 463 404V333Q452 332 443.5 331.5Q435 331 426 330V38H497V0H204V37H275Q276 47 276.5 55.5Q277 64 277 73H312V293Q304 294 295.5 294.5Q287 295 276 296V404Q267 405 258.5 405.0Q250 405 240 406V441Q230 442 221.5 442.5Q213 443 203 443Q203 452 202.5 460.5Q202 469 202 478Q193 479 184.5 479.0Q176 479 166 480V552Q156 553 147.5 553.0Q139 553 129 554V626Q119 626 110.5 626.5Q102 627 93 628V663H19V700H276V664H205V628H240V555Q250 554 258.5 554.0Q267 554 277 553Q277 545 277.5 536.5Q278 528 278 518Q287 517 295.5 517.0Q304 517 314 516Z"/>
</g>
</svg>
